<svg width="286" height="142" viewBox="0 0 286 142" fill="none" xmlns="http://www.w3.org/2000/svg">
<g clip-path="url(#clip0_1_206)">
<path d="M286 0H0.657471V142H286V0Z" fill="white"/>
<path d="M9.37491 141.014H277.574C281.906 141.014 285.418 137.042 285.418 132.143V9.85682C285.418 4.95765 281.906 0.986084 277.574 0.986084H9.37491C5.04283 0.986084 1.53101 4.95765 1.53101 9.85682V132.143C1.53101 137.042 5.04283 141.014 9.37491 141.014Z" fill="white" stroke="#BCC3CE" stroke-width="0.5" stroke-linecap="round" stroke-linejoin="round" stroke-dasharray="4 4"/>
<path d="M79.3661 42.4028H36.3771C34.0168 42.4028 32.1034 44.5629 32.1034 47.2275V95.7587C32.1034 98.4233 34.0168 100.583 36.3771 100.583H79.3661C81.7264 100.583 83.6397 98.4233 83.6397 95.7587V47.2275C83.6397 44.5629 81.7264 42.4028 79.3661 42.4028Z" stroke="#BCC3CE" stroke-width="0.5" stroke-dasharray="4 4"/>
<path d="M255.333 71.4931C255.333 53.7931 241.242 39.4445 223.861 39.4445C206.48 39.4445 192.39 53.7931 192.39 71.4931C192.39 89.1931 206.48 103.542 223.861 103.542C241.242 103.542 255.333 89.1931 255.333 71.4931Z" stroke="#BCC3CE" stroke-width="0.5" stroke-linecap="round" stroke-linejoin="round" stroke-dasharray="4 4"/>
<path d="M111.694 54.6445L111.74 80.9639C111.74 83.7646 113.144 86.3736 115.47 87.8602L139.545 103.274C141.872 104.76 144.791 104.924 147.268 103.705L170.458 92.2628C173.199 90.9104 174.95 88.0808 174.96 84.9732L174.913 58.6538C174.913 55.853 173.509 53.2441 171.183 51.7574L147.109 36.3437C144.782 34.857 141.862 34.6939 139.385 35.9121L126.914 42.0603L116.186 47.3548C113.445 48.7073 111.703 51.5368 111.694 54.6349V54.6445Z" fill="white" stroke="#99A2AF" stroke-width="1.41" stroke-miterlimit="10"/>
<path d="M145.112 91.7257L145.159 73.9236C145.186 71.8039 146.401 69.8472 148.276 68.9264L158.251 64.0059L160.408 62.9412L164.504 60.9174L168.281 59.0566C169.101 58.6538 169.779 58.9895 170.034 59.1526C170.288 59.3156 170.881 59.7952 170.881 60.7159L170.91 73.7126L170.891 73.6935L170.91 83.4577C170.91 85.5678 169.685 87.5437 167.811 88.4645L149.388 97.5478L149.406 97.519L147.843 98.2959C147.024 98.6989 146.298 98.3343 146.016 98.1616C145.743 97.989 145.102 97.4806 145.112 96.5502V91.6969V91.7257Z" fill="white" stroke="#99A2AF" stroke-width="0.78" stroke-miterlimit="10"/>
</g>
<defs>
<clipPath id="clip0_1_206">
<rect width="286" height="142" fill="white"/>
</clipPath>
</defs>
</svg>
