<svg width="286" height="142" viewBox="0 0 286 142" fill="none" xmlns="http://www.w3.org/2000/svg">
<g clip-path="url(#clip0_1_172)">
<path d="M285.342 0H0V142H285.342V0Z" fill="white"/>
<path d="M8.47504 51.2778H42.8488C46.9942 51.2778 50.3547 47.8556 50.3547 43.6341V8.62972C50.3547 4.40825 46.9942 0.986084 42.8488 0.986084H8.47504C4.32963 0.986084 0.969109 4.40825 0.969109 8.62972V43.6341C0.969109 47.8556 4.32963 51.2778 8.47504 51.2778Z" stroke="#BCC3CE" stroke-width="0.5" stroke-linecap="round" stroke-linejoin="round" stroke-dasharray="4 4"/>
<path d="M8.47504 141.014H42.8488C46.9942 141.014 50.3547 137.592 50.3547 133.37V98.3658C50.3547 94.1444 46.9942 90.7222 42.8488 90.7222H8.47504C4.32963 90.7222 0.969109 94.1444 0.969109 98.3658V133.37C0.969109 137.592 4.32963 141.014 8.47504 141.014Z" stroke="#BCC3CE" stroke-width="0.5" stroke-linecap="round" stroke-linejoin="round" stroke-dasharray="4 4"/>
<path d="M51.3231 26.625H82.5092V48.8125V71H118.139" stroke="#BCC3CE" stroke-width="0.5" stroke-linecap="round" stroke-linejoin="round" stroke-dasharray="4 4"/>
<path d="M50.3547 117.347H82.3102V71" stroke="#BCC3CE" stroke-width="0.5" stroke-linecap="round" stroke-linejoin="round" stroke-dasharray="4 4"/>
<path d="M277.188 90.7222H242.815C238.669 90.7222 235.309 94.1444 235.309 98.3658V133.37C235.309 137.592 238.669 141.014 242.815 141.014H277.188C281.334 141.014 284.694 137.592 284.694 133.37V98.3658C284.694 94.1444 281.334 90.7222 277.188 90.7222Z" stroke="#BCC3CE" stroke-width="0.5" stroke-linecap="round" stroke-linejoin="round" stroke-dasharray="4 4"/>
<path d="M277.188 0.986084H242.815C238.669 0.986084 235.309 4.40825 235.309 8.62973V43.6341C235.309 47.8556 238.669 51.2778 242.815 51.2778H277.188C281.334 51.2778 284.694 47.8556 284.694 43.6341V8.62973C284.694 4.40825 281.334 0.986084 277.188 0.986084Z" stroke="#BCC3CE" stroke-width="0.5" stroke-linecap="round" stroke-linejoin="round" stroke-dasharray="4 4"/>
<path d="M235.309 117.347H203.932V71H174.303" stroke="#BCC3CE" stroke-width="0.5" stroke-linecap="round" stroke-linejoin="round" stroke-dasharray="4 4"/>
<path d="M235.309 26.625H203.354V71" stroke="#BCC3CE" stroke-width="0.5" stroke-linecap="round" stroke-linejoin="round" stroke-dasharray="4 4"/>
<path d="M174.626 55.6305L174.579 81.9499C174.579 84.7507 173.176 87.3597 170.849 88.8463L146.774 104.261C144.448 105.747 141.529 105.91 139.051 104.691L115.862 93.2489C113.121 91.8965 111.369 89.0669 111.36 85.9593L111.407 59.6399C111.407 56.8391 112.81 54.2302 115.137 52.7435L139.211 37.3298C141.537 35.843 144.458 35.68 146.935 36.8982L159.406 43.0464L170.134 48.3409C172.874 49.6934 174.617 52.5229 174.626 55.621V55.6305Z" fill="white" stroke="#99A2AF" stroke-width="1.41" stroke-miterlimit="10"/>
<path d="M141.208 92.7118L141.161 74.9097C141.133 72.79 139.918 70.8333 138.043 69.9125L128.069 64.992L125.912 63.9273L121.815 61.9035L118.038 60.0427C117.219 59.6399 116.54 59.9755 116.286 60.1386C116.031 60.3016 115.438 60.7813 115.438 61.702L115.41 74.6987L115.429 74.6795L115.41 84.4438C115.41 86.5539 116.635 88.5298 118.509 89.4506L136.932 98.5339L136.913 98.5051L138.476 99.2816C139.296 99.685 140.022 99.3201 140.304 99.1475C140.577 98.9749 141.218 98.4667 141.208 97.5363V92.683V92.7118Z" fill="white" stroke="#99A2AF" stroke-width="0.78" stroke-miterlimit="10"/>
</g>
<defs>
<clipPath id="clip0_1_172">
<rect width="286" height="142" fill="white"/>
</clipPath>
</defs>
</svg>
