<svg width="286" height="142" viewBox="0 0 286 142" fill="none" xmlns="http://www.w3.org/2000/svg">
<path d="M285.671 0H0.328735V142H285.671V0Z" fill="white"/>
<path d="M118.573 0.986084H11.3623C5.75102 0.986084 1.20224 5.89568 1.20224 11.9519V130.048C1.20224 136.104 5.75102 141.014 11.3623 141.014H118.573C124.184 141.014 128.733 136.104 128.733 130.048V11.9519C128.733 5.89568 124.184 0.986084 118.573 0.986084Z" stroke="#BCC3CE" stroke-width="0.5" stroke-linecap="round" stroke-linejoin="round" stroke-dasharray="4 4"/>
<path d="M280.696 0.986084H230.958C228.532 0.986084 226.564 3.18277 226.564 5.89253V55.2464C226.564 57.9561 228.532 60.1528 230.958 60.1528H280.696C283.122 60.1528 285.089 57.9561 285.089 55.2464V5.89253C285.089 3.18277 283.122 0.986084 280.696 0.986084Z" fill="white" stroke="#BCC3CE" stroke-width="0.5" stroke-dasharray="4 4"/>
<path d="M209.943 0.986084H160.204C157.778 0.986084 155.811 3.18277 155.811 5.89253V55.2464C155.811 57.9561 157.778 60.1528 160.204 60.1528H209.943C212.369 60.1528 214.335 57.9561 214.335 55.2464V5.89253C214.335 3.18277 212.369 0.986084 209.943 0.986084Z" fill="white" stroke="#BCC3CE" stroke-width="0.5" stroke-dasharray="4 4"/>
<path d="M277.87 75.9305H163.03C159.044 75.9305 155.811 79.1887 155.811 83.2077V133.736C155.811 137.756 159.044 141.014 163.03 141.014H277.87C281.857 141.014 285.089 137.756 285.089 133.736V83.2077C285.089 79.1887 281.857 75.9305 277.87 75.9305Z" fill="white" stroke="#BCC3CE" stroke-width="0.5" stroke-dasharray="4 4"/>
<path d="M137.961 104.645L115.945 90.6667C113.599 89.1835 112.149 86.5915 112.123 83.7976L111.822 54.8704C111.795 52.0766 113.188 49.4718 115.506 47.9803L137.233 34.0385C139.801 32.3906 143.088 32.3779 145.695 34.0155L167.712 47.9935C170.058 49.4766 171.508 52.0686 171.535 54.8625L171.835 83.7897C171.862 86.5836 170.469 89.1884 168.152 90.68L156.472 98.1803L146.419 104.629C143.852 106.278 140.569 106.282 137.97 104.65L137.961 104.645Z" fill="white" stroke="#99A2AF" stroke-width="1.41" stroke-miterlimit="10"/>
<path d="M124.489 56.1613L139.412 65.5408C141.201 66.6381 143.474 66.6263 145.226 65.498L154.564 59.5048L156.584 58.2092L160.422 55.7488L163.956 53.4782C164.722 52.9851 164.796 52.223 164.793 51.9175C164.789 51.612 164.699 50.8469 163.928 50.3596L153.066 43.4581L153.072 43.4844L144.91 38.3014C143.144 37.1847 140.85 37.1946 139.098 38.3228L121.854 49.395L121.888 49.3941L120.42 50.3305C119.654 50.8236 119.58 51.6415 119.576 51.9764C119.578 52.3032 119.667 53.1242 120.451 53.6084L124.513 56.1766L124.489 56.1613Z" fill="white" stroke="#99A2AF" stroke-width="0.78" stroke-miterlimit="10"/>
</svg>
