<svg width="90" height="22" viewBox="0 0 90 22" fill="none" xmlns="http://www.w3.org/2000/svg">
<g clip-path="url(#clip0_1_24)">
<path d="M73.5964 1.44968H69.8964V4.89522H73.5964V1.44968Z" fill="#1C1D1F"/>
<path fill-rule="evenodd" clip-rule="evenodd" d="M59.1921 10.2966H55.9428V15.8955C55.9428 16.3622 56.0672 16.7037 56.3178 16.9182C56.5684 17.1344 56.935 17.2596 57.4161 17.2957C57.8971 17.313 58.4958 17.3051 59.2089 17.2691V20.4186C56.6845 20.688 54.8832 20.4718 53.8035 19.7734C52.7439 19.0561 52.2142 17.764 52.2142 15.8971V10.2981H49.6998V6.9591H52.2142V4.24026L55.9428 3.19094V6.96066H61.7065V4.24183L65.4351 3.1925V6.96223H68.7012V10.3013H65.4351V15.9002C65.4351 16.367 65.5595 16.7084 65.8101 16.9229C66.0607 17.139 66.4273 17.2643 66.9084 17.3004C67.3893 17.3177 67.988 17.3098 68.6995 17.2738V20.4233C66.1751 20.6927 64.3738 20.4766 63.2941 19.7781C62.2345 19.0608 61.7048 17.7687 61.7048 15.9018V10.3028H59.1904L59.1921 10.2966Z" fill="#1C1D1F"/>
<path d="M73.6136 6.95582H69.885V20.4169H73.6136V6.95582Z" fill="#1C1D1F"/>
<path fill-rule="evenodd" clip-rule="evenodd" d="M82.3981 6.60644C78.2003 6.60644 74.7963 9.77634 74.7963 13.687C74.7963 17.5977 78.2003 20.7676 82.3981 20.7676C86.5961 20.7676 90.0001 17.5977 90.0001 13.687C90.0001 9.77634 86.5977 6.60644 82.3981 6.60644ZM82.3848 17.4301C80.1579 17.4301 78.3516 15.7481 78.3516 13.6745C78.3516 11.6009 80.1579 9.91886 82.3848 9.91886C84.6115 9.91886 86.4161 11.5993 86.4161 13.6745C86.4161 15.7496 84.6115 17.4301 82.3848 17.4301Z" fill="#1C1D1F"/>
<path fill-rule="evenodd" clip-rule="evenodd" d="M44.8119 6.92908V7.67613C43.6464 6.99955 42.2706 6.60644 40.7957 6.60644C36.5978 6.60644 33.1938 9.77634 33.1938 13.687C33.1938 17.5977 36.5978 20.7676 40.7957 20.7676C42.2706 20.7676 43.6464 20.3761 44.8119 19.6979V20.4449H48.5119V6.92908H44.8119ZM40.7823 17.4301C38.5556 17.4301 36.7493 15.7481 36.7493 13.6745C36.7493 11.6009 38.5556 9.91886 40.7823 9.91886C43.009 9.91886 44.7766 11.5664 44.8119 13.6118V13.7355C44.7766 15.7809 42.9872 17.4285 40.7823 17.4285V17.4301Z" fill="#1C1D1F"/>
<path d="M26.7785 15.0749L24.518 11.7061C24.518 11.7061 24.5097 11.6921 24.5046 11.6858L24.3263 11.421C23.99 10.9183 23.4081 10.6176 22.7724 10.616L19.1312 10.605L18.8772 10.9841L14.5263 17.468L14.2858 17.8266L16.1089 20.5392C16.4453 21.0435 17.0272 21.3442 17.668 21.3442H22.7707C23.3997 21.3442 23.995 21.0357 24.328 20.5408L24.508 20.273C24.508 20.273 24.5148 20.2651 24.5163 20.262L26.7802 16.8885C27.1519 16.3372 27.1519 15.6246 26.7802 15.0749H26.7785ZM26.0889 16.486L23.8251 19.8595C23.815 19.8751 23.8033 19.8877 23.7932 19.9003C23.7142 19.9832 23.6116 19.9942 23.5662 19.9942C23.514 19.9942 23.3862 19.9801 23.3038 19.8579L21.0401 16.4844C21.0148 16.4469 20.9929 16.4077 20.9728 16.3654C20.9526 16.3247 20.9375 16.284 20.924 16.2417C20.8736 16.0726 20.8736 15.8908 20.924 15.7217C20.9492 15.6388 20.9879 15.5557 21.0384 15.4806L23.2987 12.1102C23.2987 12.1102 23.3021 12.1054 23.3038 12.1023C23.3576 12.0272 23.4249 11.9927 23.4837 11.9817C23.5073 11.9754 23.5275 11.9739 23.5443 11.9708C23.5527 11.9708 23.5611 11.9708 23.5695 11.9708C23.6216 11.9708 23.7511 11.9864 23.8319 12.1086L26.0922 15.4774C26.2991 15.7844 26.2991 16.179 26.0922 16.486H26.0889Z" fill="#1C1D1F"/>
<path d="M20.0895 6.92356C20.4595 6.37071 20.4595 5.65967 20.0895 5.10995L17.8291 1.74116L17.6408 1.45769C17.3027 0.954952 16.7208 0.654251 16.0816 0.654251H10.979C10.3416 0.654251 9.75968 0.954952 9.41995 1.45925L0.282548 15.0769C0.0992282 15.3494 0 15.6642 0 15.9837C0 16.3033 0.0975463 16.6181 0.280866 16.889L2.7313 20.5428C3.06935 21.0471 3.65125 21.3463 4.28868 21.3463H9.39135C10.0321 21.3463 10.614 21.0455 10.9504 20.5413L11.1371 20.2656C11.1371 20.2656 11.1371 20.2656 11.1371 20.2624L11.1405 20.2562L12.9619 17.5436L18.3606 9.49831L20.0861 6.92512L20.0895 6.92356ZM19.5563 6.01675C19.5563 6.1906 19.5042 6.366 19.3983 6.52105L10.4475 19.8615C10.3668 19.9822 10.2373 19.9962 10.1852 19.9962C10.133 19.9962 10.0052 19.9822 9.92282 19.8615L7.66075 16.4865C7.45557 16.1811 7.45557 15.7879 7.66075 15.4794L16.6114 2.1421C16.6922 2.01994 16.8217 2.00583 16.8739 2.00583C16.926 2.00583 17.0555 2.01994 17.1379 2.14366L19.3983 5.51246C19.5042 5.6675 19.5563 5.84291 19.5563 6.01675Z" fill="#1C1D1F"/>
</g>
<defs>
<clipPath id="clip0_1_24">
<rect width="90" height="22" fill="white"/>
</clipPath>
</defs>
</svg>
