<svg width="124" height="33" viewBox="0 0 124 33" fill="none" xmlns="http://www.w3.org/2000/svg">
<path d="M31.373 12.253C31.3716 15.4701 30.1625 18.5592 28.0039 20.8607C25.8452 23.1622 22.9081 24.4938 19.8196 24.571V11.4941H7.77747C7.98235 8.3113 9.36497 5.33534 11.6343 3.19265C13.9036 1.04994 16.8827 -0.0924704 19.9444 0.00585962C23.0063 0.10419 25.912 1.43558 28.0502 3.71983C30.1885 6.00407 31.3568 9.0631 31.373 12.253Z" fill="#99A2AF"/>
<path d="M19.819 11.4941V24.5711H19.6146C18.0616 24.5711 16.5239 24.2524 15.0892 23.6333C13.6546 23.0141 12.3511 22.1066 11.2534 20.9627C10.1558 19.8187 9.28528 18.4607 8.69176 16.9662C8.0983 15.4718 7.79342 13.8702 7.79456 12.253C7.79456 12.0032 7.79456 11.744 7.79456 11.4941H19.819Z" fill="white"/>
<path d="M19.8189 24.5711V32.0305H0.0358887V11.4941H7.77668C7.77668 11.744 7.77668 12.0032 7.77668 12.253C7.77549 13.8702 8.08036 15.4718 8.67383 16.9662C9.26734 18.4607 10.1378 19.8187 11.2355 20.9627C12.3332 22.1066 13.6366 23.0141 15.0713 23.6333C16.5059 24.2524 18.0437 24.5711 19.5966 24.5711H19.8189Z" fill="#6F7988"/>
<path d="M45.5303 8.21106H55.4779C60.5796 8.21106 63.768 10.522 63.768 15.3563C63.768 20.1906 60.5796 22.7406 55.2742 22.7406H49.8729V30.4038H45.5303V8.21106ZM55.0446 18.836C57.8442 18.836 59.3936 17.9528 59.3936 15.5157C59.3936 12.9989 57.8121 12.1157 55.1909 12.1157H49.9048V18.8028L55.0446 18.836Z" fill="#6F7988"/>
<path d="M63.4967 26.4194C63.4967 24.0819 64.9888 22.6808 67.6735 21.9237L74.5414 19.9847L74.7197 19.9316C74.7197 19.9316 74.7197 19.7921 74.7197 19.7324C74.7197 17.8464 73.6361 16.9964 71.7103 16.9964C69.7845 16.9964 68.2345 18.0589 67.3354 20.6753L63.8028 19.3074C65.1992 15.3894 68.1518 13.8688 71.8887 13.8688C76.5566 13.8688 79.0372 16.3258 79.0372 19.6394V25.3237C79.0372 26.5124 79.4131 27.1499 80.3763 27.1499C80.886 27.1379 81.3865 27.0015 81.8368 26.7514V30.0717C80.8431 30.4842 79.7874 30.709 78.7182 30.7358C76.5246 30.7358 74.8345 29.494 74.8345 27.0901V26.7581H74.7197C74.1872 27.9864 73.3187 29.0242 72.2237 29.7421C71.1281 30.4601 69.8537 30.8264 68.5602 30.7956C65.193 30.7424 63.4967 28.5178 63.4967 26.4194ZM69.8351 27.3292C70.986 27.2837 72.097 26.8788 73.024 26.1671C73.5627 25.762 74.0011 25.229 74.3025 24.6123C74.6045 23.9957 74.7606 23.313 74.758 22.621C74.758 22.5812 74.758 22.3488 74.758 22.3488L74.5031 22.4351L69.6697 24.1683C68.5602 24.5667 67.8013 24.8722 67.8013 25.7487C67.7883 26.5124 68.4004 27.3292 69.8351 27.3292Z" fill="#6F7988"/>
<path d="M83.5639 8.21106H87.9321V30.4038H83.5577L83.5639 8.21106Z" fill="#6F7988"/>
<path d="M90.4009 8.21106H94.7819V30.4038H90.4009V8.21106Z" fill="#6F7988"/>
<path d="M104.512 30.7422C99.3786 30.7422 96.2223 27.4221 96.2223 22.5081C96.2223 17.3749 99.5254 13.8156 104.633 13.8156C109.595 13.8156 112.891 17.0097 112.891 23.0592H100.539C100.743 25.5627 101.91 27.3689 104.773 27.3689C106.904 27.3689 108.708 26.3662 109.295 24.1217L112.853 25.2772C111.527 29.122 108.275 30.7422 104.512 30.7422ZM108.396 20.3499C107.943 18.132 106.585 17.096 104.633 17.096C103.704 17.0242 102.783 17.319 102.053 17.9218C101.323 18.5246 100.837 19.3914 100.692 20.3499H108.396Z" fill="#6F7988"/>
<path d="M121.339 27.3621C119.56 27.3621 118.973 26.7844 118.973 24.7457V17.461H123.641V14.2072H112.162V17.461H114.643V26.5187C114.643 29.1749 115.918 30.7089 119.668 30.7089C121.06 30.7248 122.45 30.5823 123.813 30.2839V27.0964C122.997 27.2566 122.169 27.3455 121.339 27.3621Z" fill="#6F7988"/>
<path d="M114.593 8.21106C114.77 9.35956 115.291 10.4206 116.081 11.2432C116.871 12.0658 117.889 12.6081 118.993 12.793V8.21106H114.593Z" fill="#6F7988"/>
</svg>
