<svg width="110" height="31" viewBox="0 0 110 31" fill="none" xmlns="http://www.w3.org/2000/svg">
<path opacity="0.25" fill-rule="evenodd" clip-rule="evenodd" d="M80.4102 6.5942C79.9659 7.0385 79.5668 7.5264 79.2196 8.0506C78.3595 6.7537 77.1919 5.6899 75.8208 4.954C74.4498 4.2181 72.9179 3.83292 71.3618 3.83285H51.7708V6.2297C50.0436 4.6856 47.808 3.832 45.4911 3.83203H35.327C33.7711 3.832 32.2394 4.217 30.8685 4.9528C29.4976 5.6886 28.33 6.7523 27.4701 8.0489C26.6103 6.7521 25.4429 5.6883 24.0719 4.9524C22.7009 4.2166 21.1691 3.83171 19.6131 3.83203H0.0229492V30.3099H19.6156C21.1717 30.31 22.7036 29.9249 24.0746 29.1888C25.4456 28.4527 26.613 27.3885 27.4725 26.0914C28.3321 27.3885 29.4995 28.4527 30.8705 29.1888C32.2415 29.9249 33.7734 30.31 35.3295 30.3099H45.4928C47.8098 30.3099 50.0446 29.4566 51.7716 27.9131V30.3099H67.8533V25.2307H71.3643C72.6885 25.231 73.998 24.9521 75.2073 24.4124C76.4166 23.8727 77.4986 23.0842 78.3828 22.0983H84.1194V30.3099H100.201V22.0983H106.667V3.83203H87.0757C85.8377 3.83212 84.6119 4.0761 83.4682 4.55C82.3245 5.024 81.2854 5.7186 80.4102 6.5942Z" fill="#99A2AF"/>
<path d="M22.7576 2.26074H4.7373V25.5955H22.7576C24.8414 25.5953 26.8399 24.7679 28.314 23.2949C29.787 21.8209 30.6144 19.8224 30.6145 17.7385V10.1194C30.6146 9.0875 30.4115 8.0657 30.0167 7.1124C29.6219 6.159 29.0432 5.2928 28.3136 4.5631C27.584 3.83343 26.7178 3.25462 25.7645 2.85972C24.8112 2.46482 23.7894 2.26074 22.7576 2.26074Z" fill="white"/>
<path fill-rule="evenodd" clip-rule="evenodd" d="M3.1665 0.689453H22.7591C25.2595 0.689453 27.6575 1.68273 29.4255 3.45076C31.1936 5.2188 32.1868 7.6168 32.1868 10.1172V17.738C32.1868 20.2384 31.1936 22.6363 29.4255 24.4044C27.6575 26.1724 25.2595 27.1657 22.7591 27.1657H3.16733L3.1665 0.689453ZM6.30962 3.83257V24.0234H22.7591C23.5846 24.0234 24.402 23.8608 25.1646 23.5449C25.9273 23.2289 26.6202 22.7659 27.2039 22.1821C27.7875 21.5984 28.2505 20.9054 28.5663 20.1427C28.8822 19.38 29.0446 18.5626 29.0445 17.7372V10.118C29.044 8.8751 28.6752 7.6603 27.9847 6.6268C27.2942 5.5934 26.313 4.7877 25.165 4.3114C24.4022 3.99561 23.5847 3.83317 22.7591 3.83339L6.30962 3.83257Z" fill="#818B9A"/>
<path fill-rule="evenodd" clip-rule="evenodd" d="M19.2524 19.8078V9.44043H22.3956V19.8078H19.2524Z" fill="#818B9A"/>
<path d="M74.5097 2.26074H56.4878V25.5955H69.4272V20.5163H74.5097C76.5928 20.5157 78.5905 19.6878 80.0635 18.2148C81.5365 16.7418 82.3644 14.7442 82.365 12.661V10.1185C82.3651 9.0868 82.162 8.0652 81.7673 7.1121C81.3726 6.1589 80.794 5.2927 80.0646 4.5632C79.3351 3.83357 78.4692 3.2548 77.516 2.85989C76.5629 2.46499 75.5414 2.26084 74.5097 2.26074Z" fill="white"/>
<path fill-rule="evenodd" clip-rule="evenodd" d="M54.917 0.689453H74.5096C77.01 0.689453 79.408 1.68273 81.176 3.45076C82.944 5.2188 83.9373 7.6168 83.9373 10.1172V12.6596C83.9369 15.1599 82.9435 17.5576 81.1755 19.3255C79.4076 21.0935 77.0099 22.0869 74.5096 22.0873H70.9979V27.1657H54.917V0.689453ZM58.0601 3.83257V24.0234H67.8548V18.945H74.5096C76.1763 18.9445 77.7747 18.2825 78.9536 17.1044C80.1317 15.9255 80.7937 14.3271 80.7942 12.6604V10.118C80.7939 8.4514 80.1322 6.8531 78.9544 5.674C77.7753 4.4957 76.1766 3.83366 74.5096 3.83339L58.0593 3.83175L58.0601 3.83257Z" fill="#818B9A"/>
<path fill-rule="evenodd" clip-rule="evenodd" d="M71.011 15.7846V9.4375H74.1541V15.7846H71.011Z" fill="#818B9A"/>
<path d="M48.6379 2.26074H38.4738C36.9198 2.26006 35.4005 2.72052 34.1084 3.58382C32.8162 4.4471 31.8093 5.6744 31.215 7.1104C30.8204 8.0636 30.6174 9.0852 30.6177 10.1169V17.7377C30.6179 19.8213 31.4456 21.8195 32.9189 23.2929C34.3921 24.7663 36.3902 25.5942 38.4738 25.5947H48.6379C50.7218 25.5945 52.7203 24.767 54.1943 23.2941C55.6676 21.8202 56.4954 19.8217 56.4957 17.7377V10.1185C56.4957 8.0345 55.6678 6.0359 54.1942 4.5622C52.7206 3.08861 50.7219 2.26074 48.6379 2.26074Z" fill="white"/>
<path fill-rule="evenodd" clip-rule="evenodd" d="M31.8057 3.45079C33.5738 1.68275 35.9717 0.689473 38.4721 0.689453H48.6387C49.8767 0.689453 51.1027 0.933314 52.2465 1.40709C53.3903 1.88088 54.4296 2.57532 55.3051 3.45076C56.1805 4.3262 56.875 5.3655 57.3487 6.5093C57.8225 7.6531 58.0664 8.8791 58.0664 10.1172V17.738C58.0664 20.2384 57.0731 22.6363 55.3051 24.4044C53.537 26.1724 51.1391 27.1657 48.6387 27.1657H38.4746C35.9742 27.1657 33.5762 26.1724 31.8082 24.4044C30.0401 22.6363 29.0469 20.2384 29.0469 17.738V10.1188C29.0463 8.8806 29.2897 7.6545 29.7631 6.5104C30.2364 5.3663 30.9305 4.3266 31.8057 3.45079ZM38.4721 3.83175C36.8051 3.83202 35.2065 4.494 34.0273 5.6724C32.849 6.8515 32.187 8.4502 32.1867 10.1172V17.738C32.1869 19.405 32.8493 21.0038 34.0282 22.1825C35.2071 23.3612 36.8059 24.0234 38.4729 24.0234H48.6387C49.8818 24.0231 51.097 23.6543 52.1307 22.9637C53.1643 22.273 53.9701 21.2915 54.446 20.143C54.7617 19.3805 54.9242 18.5633 54.9241 17.738V10.1188C54.9237 8.8758 54.5549 7.6608 53.8645 6.6272C53.174 5.5936 52.1927 4.7877 51.0446 4.3114C50.2818 3.99561 49.4643 3.83317 48.6387 3.83339L38.4721 3.83175Z" fill="#818B9A"/>
<path fill-rule="evenodd" clip-rule="evenodd" d="M41.9783 9.44043V19.8078H38.8352V9.44043H41.9783Z" fill="#818B9A"/>
<path d="M108.245 2.26074H90.221C89.1893 2.26057 88.1677 2.46374 87.2146 2.85862C86.2614 3.25351 85.3955 3.83238 84.6662 4.5621C83.9364 5.2914 83.3574 6.1573 82.9624 7.1104C82.5674 8.0635 82.364 9.0852 82.364 10.1169V17.3831H88.8296V25.5947H101.769V17.3831H108.235L108.245 2.26074Z" fill="white"/>
<path fill-rule="evenodd" clip-rule="evenodd" d="M83.5574 3.45079C85.3257 1.6827 87.724 0.689433 90.2246 0.689453H109.816V18.9541H103.351V27.1657H87.2691V18.9541H80.8035V10.118C80.8015 7.6184 81.792 5.2203 83.5574 3.45079ZM90.2246 3.83175C89.3991 3.83175 88.5817 3.99435 87.8191 4.3103C87.0564 4.6262 86.3635 5.0892 85.7798 5.673C85.1962 6.2567 84.7332 6.9497 84.4174 7.7124C84.1016 8.4751 83.9391 9.2925 83.9392 10.118V15.8118H90.4048V24.0234H100.202V15.8118H106.668V3.83175H90.2246Z" fill="#818B9A"/>
</svg>
